<svg width="199" height="36" viewBox="0 0 199 36" fill="none" xmlns="http://www.w3.org/2000/svg">
<path d="M2.016 30V4.08H7.56L17.604 19.308V4.08H23.904V30H18.396L8.28 15.096V30H2.016ZM35.9742 30L27.9822 4.08H34.6422L39.7542 22.512L45.0102 4.08H51.5262L43.3542 30H35.9742ZM65.0175 9.696H61.9935V24.42H65.0175C69.3375 24.42 71.3175 21.972 71.3175 17.04C71.3175 12.252 69.3375 9.696 65.0175 9.696ZM55.6215 4.08H65.0175C73.6575 4.08 77.9775 9.192 77.9775 16.608C77.9775 25.932 73.4775 30 64.0455 30H55.6215V4.08ZM93.4735 9.3H89.6575V14.268H93.0055C95.2015 14.268 96.2455 13.152 96.2455 11.676C96.2455 10.272 95.3455 9.3 93.4735 9.3ZM89.6575 19.056V24.636H94.0855C96.1015 24.636 97.2895 23.628 97.2895 21.828C97.2895 20.064 96.1015 19.056 94.0855 19.056H89.6575ZM83.2855 30V4.08H93.4015C99.6295 4.08 102.762 5.952 102.762 10.416C102.762 13.08 101.286 15.348 98.4415 16.212V16.284C102.258 16.968 103.77 19.812 103.77 22.116C103.77 28.452 98.6215 30 92.2855 30H83.2855Z" fill="#353E43"/>
<path d="M114.022 15V4.92H115.73L120.21 11.738V4.92H122.128V15H120.434L115.926 8.266V15H114.022ZM128.157 12.158V11.962C127.947 11.92 127.653 11.892 127.275 11.892C126.267 11.892 125.581 12.158 125.581 12.984C125.581 13.53 125.931 13.81 126.589 13.81C127.555 13.81 128.157 12.928 128.157 12.158ZM130.019 10.156V15H128.535L128.339 14.006C127.807 14.79 127.051 15.182 126.015 15.182C124.685 15.182 123.733 14.454 123.733 13.012C123.733 11.836 124.573 10.674 127.107 10.674C127.527 10.674 127.807 10.688 128.157 10.73V10.184C128.157 9.302 127.695 8.924 126.897 8.924C126.001 8.924 125.427 9.204 124.713 9.624L124.083 8.504C124.881 7.874 125.987 7.44 127.093 7.44C128.941 7.44 130.019 8.238 130.019 10.156ZM131.248 13.894L132.074 12.774C132.774 13.306 133.698 13.726 134.412 13.726C135.084 13.726 135.448 13.432 135.448 12.97C135.448 12.48 135.196 12.256 133.978 11.948C132.382 11.542 131.71 10.94 131.71 9.722C131.71 8.294 132.83 7.44 134.51 7.44C135.686 7.44 136.68 7.86 137.45 8.56L136.624 9.638C135.924 9.134 135.238 8.854 134.594 8.854C133.908 8.854 133.572 9.092 133.572 9.512C133.572 10.058 134.062 10.212 135.182 10.534C136.75 10.982 137.464 11.5 137.464 12.732C137.464 14.3 136.302 15.182 134.51 15.182C133.152 15.182 132.004 14.622 131.248 13.894ZM140.958 7.608V15.7C140.958 17.072 140.412 17.856 138.942 17.856C138.494 17.856 138.018 17.772 137.668 17.66L137.808 16.358C137.99 16.4 138.27 16.442 138.466 16.442C138.914 16.442 139.11 16.288 139.11 15.602V7.608H140.958ZM138.928 5.718C138.928 5.088 139.418 4.752 140.048 4.752C140.706 4.752 141.168 5.088 141.168 5.718C141.168 6.32 140.706 6.656 140.048 6.656C139.432 6.656 138.928 6.32 138.928 5.718ZM144.588 11.304C144.588 12.956 145.302 13.614 146.296 13.614C147.29 13.614 148.018 12.956 148.018 11.304C148.018 9.666 147.29 8.98 146.296 8.98C145.302 8.98 144.588 9.722 144.588 11.304ZM142.628 11.346C142.628 8.798 144.21 7.44 146.324 7.44C148.424 7.44 149.978 8.77 149.978 11.304C149.978 13.824 148.382 15.182 146.226 15.182C144.014 15.182 142.628 13.824 142.628 11.346ZM151.563 7.608H153.117L153.271 8.588C153.803 7.972 154.629 7.44 155.665 7.44C157.219 7.44 158.003 8.434 158.003 10.044V15H156.141V10.604C156.141 9.498 155.763 9.022 154.979 9.022C154.237 9.022 153.649 9.582 153.425 9.848V15H151.563V7.608ZM163.895 12.158V11.962C163.685 11.92 163.391 11.892 163.013 11.892C162.005 11.892 161.319 12.158 161.319 12.984C161.319 13.53 161.669 13.81 162.327 13.81C163.293 13.81 163.895 12.928 163.895 12.158ZM165.757 10.156V15H164.273L164.077 14.006C163.545 14.79 162.789 15.182 161.753 15.182C160.423 15.182 159.471 14.454 159.471 13.012C159.471 11.836 160.311 10.674 162.845 10.674C163.265 10.674 163.545 10.688 163.895 10.73V10.184C163.895 9.302 163.433 8.924 162.635 8.924C161.739 8.924 161.165 9.204 160.451 9.624L159.821 8.504C160.619 7.874 161.725 7.44 162.831 7.44C164.679 7.44 165.757 8.238 165.757 10.156ZM169.477 15H167.615V4.92H169.477V15ZM113.224 23.608H115.17L116.794 29.194L118.418 23.608H120.294L117.858 31H115.688L113.224 23.608ZM126.827 29.012L127.429 30.23C126.561 30.874 125.553 31.182 124.433 31.182C122.207 31.182 120.863 29.838 120.863 27.36C120.863 24.98 122.249 23.44 124.447 23.44C126.491 23.44 127.625 24.63 127.625 27.024C127.625 27.192 127.611 27.808 127.597 27.934H122.823C122.907 28.942 123.397 29.642 124.657 29.642C125.399 29.642 126.001 29.446 126.827 29.012ZM122.837 26.59H125.847C125.847 25.652 125.511 24.84 124.461 24.84C123.229 24.84 122.865 25.988 122.837 26.59ZM135.987 23.608V30.594C135.987 33.128 134.881 33.94 132.515 33.94C131.465 33.94 130.471 33.716 129.841 33.478L130.135 32.12C130.807 32.302 131.507 32.484 132.375 32.484C133.733 32.484 134.195 31.952 134.195 30.58V29.894C133.677 30.538 132.879 30.958 131.927 30.958C129.981 30.958 128.903 29.67 128.903 27.346C128.903 25.036 129.953 23.44 132.053 23.44C133.117 23.44 133.887 24.056 134.321 24.56L134.447 23.608H135.987ZM134.125 28.62V25.89C133.873 25.554 133.243 25.022 132.487 25.022C131.437 25.022 130.863 25.778 130.863 27.234C130.863 28.62 131.367 29.418 132.515 29.418C133.299 29.418 133.803 28.97 134.125 28.62ZM143.085 31L142.987 30.048C142.609 30.566 141.867 31.182 140.691 31.182C138.633 31.182 137.653 29.698 137.653 27.332C137.653 24.826 138.969 23.44 140.761 23.44C141.699 23.44 142.385 23.874 142.889 24.42V20.92H144.737V31H143.085ZM142.875 28.788V25.862C142.595 25.526 142.035 25.022 141.251 25.022C140.243 25.022 139.613 25.764 139.613 27.304C139.613 28.55 140.019 29.614 141.293 29.614C142.049 29.614 142.581 29.138 142.875 28.788ZM150.66 28.158V27.962C150.45 27.92 150.156 27.892 149.778 27.892C148.77 27.892 148.084 28.158 148.084 28.984C148.084 29.53 148.434 29.81 149.092 29.81C150.058 29.81 150.66 28.928 150.66 28.158ZM152.522 26.156V31H151.038L150.842 30.006C150.31 30.79 149.554 31.182 148.518 31.182C147.188 31.182 146.236 30.454 146.236 29.012C146.236 27.836 147.076 26.674 149.61 26.674C150.03 26.674 150.31 26.688 150.66 26.73V26.184C150.66 25.302 150.198 24.924 149.4 24.924C148.504 24.924 147.93 25.204 147.216 25.624L146.586 24.504C147.384 23.874 148.49 23.44 149.596 23.44C151.444 23.44 152.522 24.238 152.522 26.156ZM157.908 25.008H156.578V29.152C156.578 29.586 156.718 29.754 157.054 29.754C157.278 29.754 157.712 29.698 157.922 29.628L158.104 30.902C157.614 31.07 156.928 31.182 156.368 31.182C155.262 31.182 154.73 30.58 154.73 29.53V25.008H153.764V23.93L154.758 23.622L154.954 21.494H156.578V23.608H157.908V25.008ZM163.389 28.158V27.962C163.179 27.92 162.885 27.892 162.507 27.892C161.499 27.892 160.813 28.158 160.813 28.984C160.813 29.53 161.163 29.81 161.821 29.81C162.787 29.81 163.389 28.928 163.389 28.158ZM165.251 26.156V31H163.767L163.571 30.006C163.039 30.79 162.283 31.182 161.247 31.182C159.917 31.182 158.965 30.454 158.965 29.012C158.965 27.836 159.805 26.674 162.339 26.674C162.759 26.674 163.039 26.688 163.389 26.73V26.184C163.389 25.302 162.927 24.924 162.129 24.924C161.233 24.924 160.659 25.204 159.945 25.624L159.315 24.504C160.113 23.874 161.219 23.44 162.325 23.44C164.173 23.44 165.251 24.238 165.251 26.156ZM168.929 25.96V28.774C169.223 29.194 169.769 29.628 170.539 29.628C171.561 29.628 172.191 28.928 172.191 27.332C172.191 25.75 171.645 24.98 170.595 24.98C169.881 24.98 169.349 25.4 168.929 25.96ZM168.537 31H167.067V20.92H168.929V24.462C169.461 23.846 170.203 23.44 171.155 23.44C172.933 23.44 174.165 24.742 174.165 27.276C174.165 29.684 173.171 31.168 170.917 31.168C169.811 31.168 169.069 30.58 168.691 30.09L168.537 31ZM179.864 28.158V27.962C179.654 27.92 179.36 27.892 178.982 27.892C177.974 27.892 177.288 28.158 177.288 28.984C177.288 29.53 177.638 29.81 178.296 29.81C179.262 29.81 179.864 28.928 179.864 28.158ZM181.726 26.156V31H180.242L180.046 30.006C179.514 30.79 178.758 31.182 177.722 31.182C176.392 31.182 175.44 30.454 175.44 29.012C175.44 27.836 176.28 26.674 178.814 26.674C179.234 26.674 179.514 26.688 179.864 26.73V26.184C179.864 25.302 179.402 24.924 178.604 24.924C177.708 24.924 177.134 25.204 176.42 25.624L175.79 24.504C176.588 23.874 177.694 23.44 178.8 23.44C180.648 23.44 181.726 24.238 181.726 26.156ZM183.542 23.608H185.096L185.25 24.588C185.782 23.972 186.608 23.44 187.644 23.44C189.198 23.44 189.982 24.434 189.982 26.044V31H188.12V26.604C188.12 25.498 187.742 25.022 186.958 25.022C186.216 25.022 185.628 25.582 185.404 25.848V31H183.542V23.608ZM193.661 20.92V26.156H194.571L196.195 23.608H198.239L196.041 26.884L198.575 31H196.405L194.445 27.696H193.661V31H191.799V20.92H193.661Z" fill="#353E43"/>
</svg>
